<?xml version="1.0" encoding="utf-8"?>
<!-- Generator: Adobe Illustrator 23.1.1, SVG Export Plug-In . SVG Version: 6.00 Build 0)  -->
<svg version="1.1" id="Layer_1" xmlns="http://www.w3.org/2000/svg" xmlns:xlink="http://www.w3.org/1999/xlink" x="0px" y="0px"
	 viewBox="0 0 792 612" style="enable-background:new 0 0 792 612;" xml:space="preserve">
<style type="text/css">
	.st0{fill:#FFFFFF;}
</style>
<g>
	<g>
		<path class="st0" d="M64.61,46.6c0-15.46,0-30.93,0-46.6c13.45,0,26.9,0,40.36,0c4.19,0.94,8.34,2.39,12.58,2.7
			c6.66,0.5,9.32,2.4,10.31,9.02c0.25,1.65,0.25,3.36,0.19,5.03c-0.22,6.61,2.51,11.84,7.01,16.5c7.29,7.56,29.26,9.95,38.77,0.84
			c2.22-2.12,5.36-3.95,8.34-4.48c6.43-1.13,13.02-1.7,19.57-1.84c10.81-0.24,20.01-3.29,27.58-11.6c3.7-4.06,8.86-6.87,13.59-9.88
			c3.76-2.39,7.88-4.23,11.84-6.31c25.61,0,51.22,0,76.83,0c3.67,2.83,4.19,6.68,3.04,10.76c-0.86,3.04-2.37,5.89-3.42,8.88
			c-4.4,12.54-6.45,24.66,4.36,35.53c4.85,4.88,9.97,7.02,16.23,3.94c4.65-2.29,9.12-5.3,12.99-8.75
			c8.56-7.62,18.42-12.26,29.55-14.16c9.64-1.64,17.88-5.13,23.45-13.74c4.93-7.63,10.3-14.98,15.48-22.46
			c79.94,0,159.87,0,239.81,0c5.85,7.11,11.61,14.3,17.57,21.32c7.44,8.76,16.35,13.13,28.05,9.09c6.37-2.2,7.91-4.07,7.91-10.64
			c0-6.59,0.01-13.18,0.02-19.77c0.26,0.13,0.73,0.25,0.74,0.39c0.06,1.03,0.03,2.07,0.03,3.1c0,202.84,0,405.67,0,608.51
			c-9.31,0-18.63,0-27.94,0c0.74-0.2,1.48-0.44,2.23-0.6c10.85-2.27,16.28-12.09,24.68-17.79c0.34-0.23,0.22-1.23,0.22-1.87
			c0.01-18.76,0.03-37.51-0.06-56.27c0-0.88-0.81-2.29-1.57-2.56c-5.46-1.96-11.05-3.55-16.49-5.53
			c-10.95-3.98-20.09-10.33-18.72-23.9c0.12-1.15,0.06-2.33-0.04-3.49c-0.68-8.27-5.08-13.95-12.27-17.75
			c-9.06-4.78-18.72-7.24-28.93-7.33c-14.96-0.12-27.5,5.32-34.96,18.57c-2.79,4.96-2.95,11.63-3.43,17.59
			c-0.82,10.07-2.18,19.92-7.19,28.87c-1.63,2.91-3.42,5.89-5.76,8.22c-7.59,7.57-10.27,16.73-9.65,27.12
			c0.29,4.88,4.55,10.78,9.69,11.1c2.82,0.17,5.62,0.88,8.43,0.93c5.17,0.09,9.17,1.58,10.18,7.29c1.02,5.79,1.95,11.59,2.93,17.38
			c-26.39,0-52.77,0-79.16,0c-1.09-3.16-2.26-6.29-3.23-9.49c-0.54-1.77-1.36-3.78-0.98-5.44c1.16-5.13,2.85-10.14,4.31-15.2
			c1.81-6.29,0.89-12.28-2.07-18.03c-3.82-7.41-11.84-11.7-20.07-11.05c-6.51,0.51-12.21,3.08-17.57,6.5
			c-6.11,3.9-12.82,5.97-19.88,7.04c-8.66,1.32-17.42,2.12-25.99,3.84c-7.93,1.58-15.26,4.76-20.27,11.73
			c-2.17,3.02-2.89,8.59-0.81,11.35c2.07,2.75,4.19,5.67,6.9,7.7c5.32,3.98,11.06,7.4,16.62,11.05c-43.46,0-86.92,0-130.38,0
			c1.92-2.25,3.81-4.54,5.77-6.76c3.72-4.21,7.72-7.82,13.83-8.18c3.84-0.22,7.63-1.14,11.45-1.6c8.98-1.07,13.4-5.38,14.62-14.24
			c1.29-9.4-2.06-17.9-7.72-24.5c-6.18-7.19-14.66-12.34-21.67-18.89c-9.93-9.29-16.17-14.93-11.87-29.68
			c1.41-4.83,4.31-9.23,6.6-13.8c4.72-9.41,7.62-19.11,4.67-29.68c-3.32-11.88-10.06-20.71-22.32-24.53
			c-8.4-2.61-16.61-1.07-24.84,0.84c-6.03,1.41-11.95,3.68-15.63,8.58c-3.48,4.64-5.54,10.37-8.13,15.66
			c-2.36,4.82-3.92,10.21-7.07,14.41c-3.27,4.34-8,7.59-12.16,11.25c-6.38,5.61-6.42,15.09-0.05,20.79
			c8.07,7.22,7.53,15.35-0.33,22.84c-3.77,3.6-6.85,8.59-8.56,13.54c-3.24,9.36,3.81,18.24,13.58,18.18
			c4.39-0.03,8.78-0.12,13.16-0.3c3.49-0.14,6.13,1.2,8.53,3.73c3.14,3.32,3.74,7.22,3.6,11.48c-0.13,3.88-0.2,7.76-0.34,11.63
			c-0.26,7.51,2.92,13.66,7.61,19.2c-15.52,0-31.04,0-46.56,0c-7.2-3.48-14.9-3.8-22.6-3.04c-2.63,0.26-5.11,1.98-7.66,3.04
			c-36.73,0-73.47,0-110.2,0c-4.52-3.54-9.48-6.18-15.38-5.82c-7.3,0.45-14.58,1.27-21.87,1.93c0-125.82,0-251.63,0-377.45
			c0.55,0.31,1.14,0.56,1.63,0.95c10.82,8.66,22.97,5.26,28.98-5.11c2.49-4.29,5.52-8.35,8.79-12.08c1.56-1.78,4.16-3.31,6.48-3.64
			c5.88-0.85,11.56,0.07,16.39,4.1c3.06,2.55,6.18,5.07,9.48,7.29c4.36,2.94,9.07,3.95,14.32,2.16c4.84-1.65,6.92-5.92,9.96-9.36
			c5.45-6.17,5.29-17.66,0.08-23.96c-4.62-5.59-10.28-9.72-16.39-13.29c-7.52-4.4-14.64-9.13-18.83-17.13
			c-2.8-5.34-5.23-10.92-8.47-15.99c-2.43-3.81-5.51-7.39-8.93-10.33c-6.79-5.82-17.81-7.66-25.85,1.61
			c-4.5,5.18-10.43,8.74-17.64,9.34c0-26.41,0-52.81,0-79.22C71.07,60.2,71.07,53.8,64.61,46.6z M337.24,349.72
			c16.9-1.72,25.74,11.02,21.88,24.54c-1.13,3.97-2.38,7.93-3.07,11.98c-1.12,6.58-0.41,13.18,5.62,17.02
			c7.72,4.92,16.63,6.23,25.31,3.18c11.04-3.88,21.9-8.39,32.55-13.27c9.67-4.44,19.25-9.25,30.08-9.02
			c7.13,0.15,14.38,1.32,21.32,3.07c17.96,4.53,29.47-1.93,38.89-13.7c6.34-7.92,6.18-17.62,4.35-27.1
			c-0.87-4.5-3.31-8.54-7.45-10.93c-6.55-3.76-13.62-6.03-21.15-7.06c-7.02-0.96-14.13-1.84-20.92-3.74
			c-8.84-2.47-16.26-9.52-15-20.13c0.25-2.12-0.17-4.38-0.58-6.52c-1.59-8.48-8.46-13.06-14.24-18.18
			c-4.09-3.62-8.1-6.96-10.7-11.94c-1.32-2.53-1.25-4.25-0.02-6.7c2.72-5.4,5.4-10.88,7.39-16.57c2.81-8.02-1.12-15.34-9.41-16.66
			c-5.18-0.83-10.74-0.1-16.02,0.65c-7.37,1.06-14.66,3.91-22.15,1.94c-5.06-1.33-9.95-3.49-14.74-5.69
			c-11.42-5.25-24.41-2.75-33.21,6.03c-5.67,5.66-6.94,13.36-3.5,18.45c2.44,3.61,5.12,7.25,6.58,11.28
			c3.09,8.57,1.67,14.75-4.99,19.7c-3.39,2.52-7.47,4.09-10.94,6.51c-6.02,4.19-12.04,8.49-14.7,15.86
			c-2.56,7.07-3.64,14.29-1.81,21.7c1.44,5.83,2.07,11.92,6.62,16.63C320.06,348.13,328.55,350.09,337.24,349.72z M139.46,464.21
			c5.38-0.16,12.66-3.14,18.72-9.21c7.78-7.79,16.63-11.7,27.97-8.44c13.93,4,23.58-0.35,29.76-12.89c3.5-7.1,9.22-11.47,16.3-14.5
			c6.71-2.87,13.54-5.2,19.24-10.4c7.71-7.03,8.78-23.11,1.08-30.09c-3.34-3.03-6.88-5.84-10.1-8.98c-1.69-1.65-3.21-3.66-4.23-5.78
			c-1.83-3.84-3.17-7.9-4.82-11.83c-2.97-7.07-10.57-11.92-18.12-11.17c-3.29,0.32-6.58,1.28-9.7,2.43
			c-5.31,1.96-10.41,4.48-15.72,6.43c-9.98,3.67-14.43-0.63-19.43-6.61c-2.85-3.41-2.2-12.93,0.25-17.87
			c5.38-10.87,2.81-15.96-6.41-22c-3.55-2.33-7.86-2.77-11.91-0.85c-3.94,1.86-7.71,4.06-11.58,6.06
			c-7.2,3.72-14.73,4.09-22.62,2.68c-5.08-0.91-10.23-1.03-14.82,2.48c-6.91,5.28-8.35,12.59-7.17,20.37
			c0.95,6.29,2.98,12.46,5,18.53c2.63,7.9-0.86,15.22-9.48,20.87c-4.98,3.27-10.06,7.03-13.64,11.68
			c-8.01,10.43-8.9,22.33-3.97,34.46c0.86,2.12,2.82,4.13,4.77,5.41c3.43,2.25,7.34,3.76,10.91,5.82
			c5.35,3.09,10.32,6.71,13.56,12.17c2.17,3.65,3.6,7.93,6.39,10.98C116.75,461.65,126.18,464.09,139.46,464.21z M501.53,144.76
			c-0.31,0.07-0.63,0.14-0.94,0.21c0,1.68-0.05,3.36,0.01,5.04c0.24,7.44,4.22,11.68,11.63,11.4c3.61-0.14,7.53-1.05,10.68-2.78
			c8.54-4.69,16.72-10.06,25.09-15.07c9.83-5.88,20.47-7.38,31.71-5.78c5.08,0.72,10.32,2.12,15.27,1.49
			c10.04-1.28,17.01-8.06,22.78-15.82c4.8-6.45,11.2-10.49,18.3-13.66c3.76-1.67,7.79-2.77,11.47-4.58
			c7.52-3.71,14.83-12.34,11.18-22.26c-0.79-2.14-1.58-4.29-2.21-6.48c-2.05-7.15-6.29-12.09-13.35-14.97
			c-3.83-1.56-7.83-3.77-10.53-6.79c-4.31-4.81-8.88-9.3-14.78-11.47c-4.4-1.62-9.51-1.75-14.3-1.72
			c-6.56,0.04-13.2,1.73-19.65,1.13c-10.6-0.99-14.64-2.44-15.8-13.15c-0.52-4.78-1.62-8.96-3.92-13.39
			c-3.23-6.24-10.12-9.38-16.89-7.68c-10.08,2.53-19.9,3.98-30.47,2.09c-7.53-1.34-18.11,6.73-15.96,17.3
			c1.16,5.7,1.99,11.54,3.92,16.98c2.14,6.06-0.76,10.24-3.81,14.57c-3.59,5.11-9.64,5.01-14.84,6.55
			c-9.36,2.77-17.09,8.07-22.54,15.93c-4.92,7.1-7,15.44-6.97,24.22c0.03,12.24,8.38,19.81,20.49,18.35
			c3.46-0.42,6.88-1.17,10.35-1.47c5.41-0.46,9,1.69,10.63,6.89C499.58,134.71,500.4,139.78,501.53,144.76z M429.79,517.65
			c-0.07,0-0.14,0-0.21,0c0,0.91-0.02,1.81,0,2.72c0.28,11.68,9.06,20.17,20.83,20.28c8.17,0.07,14.93-3.36,21.29-8.07
			c6.83-5.06,13.83-8.49,22.94-5.47c7.71,2.56,13.64-0.54,16.3-8.17c2.6-7.43,7.96-10.81,14.84-13.29
			c5.03-1.81,10.35-3.83,14.37-7.17c7.69-6.39,10.85-15.18,9.5-25.27c-1.24-9.24-4.65-17.58-12.47-23.06
			c-5.55-3.89-12.18-5.43-19.04-5.7c-10.51-0.41-20.14,3.08-29.49,7.13c-12.92,5.59-25.54,5.62-38.77,0.95
			c-6.96-2.46-14.54-4.04-21.9-4.31c-13.41-0.48-24.01,5.61-30.55,17.44c-4.32,7.82-1.11,14.45,5.38,18.68
			c3.59,2.34,8.02,3.38,12.07,5.01c11.03,4.45,16.95,8.8,14.96,22.09C429.53,513.48,429.79,515.58,429.79,517.65z M589.62,399.83
			c0.01,6.18,0.56,12.48,5.27,17.21c5.9,5.93,12.8,10.35,21.31,11.65c9.99,1.52,19.12-1.18,28.12-5.23
			c8.47-3.81,17.09-5.9,26.62-2.9c4.6,1.45,10.14,1.8,14.8,0.72c9.89-2.29,14.96-10.56,20-18.63c4.38-7.02,4.68-13.63,1.27-21.42
			c-3.56-8.11-9.31-11.19-17.41-12.61c-6.49-1.14-12.95-3.09-19.05-5.6c-6.37-2.62-8.87-8.62-10.22-15.05
			c-1.37-6.54-3.8-12.97-9.24-16.74c-7.97-5.53-17.36-6.9-27-5.38c-13.67,2.15-26.5,6.87-38.22,14.09
			c-4.79,2.95-9.61,7.01-12.4,11.75c-3.58,6.08-3.36,15.28,6.08,22.05c8.22,5.89,13.08,13.04,10.3,23.64
			C589.65,398.12,589.7,398.92,589.62,399.83z M214.06,570.72c-0.72-3.52-0.63-7.51-2.31-10.48c-4.96-8.74-5.39-17.88-3.77-27.35
			c1.23-7.18,2.33-14.34-0.29-21.41c-4.62-12.45-14.7-18.01-26.79-20.82c-7.99-1.86-15.55-0.32-21.96,4.58
			c-5.63,4.31-11.73,6.12-18.63,6.51c-9.63,0.54-19.29,1.13-28.86,2.26c-13.41,1.59-24.24,12.06-27.02,25.33
			c-3.09,14.75,7.85,31.27,24.78,31.42c5.66,0.05,11.35-0.53,16.97-1.21c12.43-1.51,22.94,1.4,30.6,12.04
			c5.23,7.27,10.46,14.45,17.58,20.21c9.19,7.43,25.4,6.47,32.75-2.84C211.23,583.69,213.94,577.75,214.06,570.72z M505.05,195.36
			c-15.34,0-23.69,5.58-26.51,15.83c-1.65,5.99,1.05,13.03,6.04,16.45c2.09,1.43,4.06,3.16,5.71,5.08c5,5.82,8.33,12.48,10.65,19.87
			c3.81,12.12,12.2,20,24.73,22.29c5.31,0.97,11-0.09,16.51-0.31c8.43-0.32,10.32,0.17,13.1,7.47c3.94,10.33,9.29,13.13,20.7,10.65
			c9.71-2.11,16.5-10.71,16.57-22.81c0.04-6.72-0.21-13.44-0.01-20.16c0.26-8.49,3.99-13.23,11.98-16.08
			c1.81-0.64,3.79-1.27,5.19-2.48c3.86-3.36,8.45-7.1,7.21-12.68c-1.26-5.7-4.08-11.19-10.49-13.33
			c-6.5-2.17-12.15-5.58-16.48-11.02c-0.7-0.88-1.7-1.61-2.7-2.16c-9.65-5.33-21.71-2.37-28.57,5.17c-4.38,4.82-9.6,8.01-16.29,7.07
			c-7.11-1-14.21-2.26-21.18-3.94C514.88,198.74,508.71,196.5,505.05,195.36z M163.6,104.5c-0.56,5.53,2.42,10.93,8.3,14.41
			c4.5,2.66,9.28,5.15,14.26,6.66c8.47,2.57,15.33,6.93,20.56,14.14c6.48,8.93,15.63,13.86,26.44,13.59
			c11.5-0.28,21.53-4.35,27.48-15.61c2.46-4.67,6.06-8.95,9.9-12.61c3.2-3.05,7.34-5.25,11.36-7.24c7.28-3.61,10.9-13.3,8.8-21.13
			c-2.67-9.95-9.81-15.69-17.81-20.87c-7.07-4.58-13.63-9.54-17.6-17.41c-1.92-3.81-4.72-7.3-7.64-10.46
			c-6.94-7.52-18.65-8.09-23.98,2.86c-1,2.05-2.64,3.79-3.64,5.83c-4.02,8.21-10.52,13.6-18.98,16.58
			c-6.55,2.31-13.22,4.31-19.9,6.24C169.53,82.82,163.64,91.79,163.6,104.5z M726.45,154.7c-5.39-1.4-10.6-2.86-15.86-4.06
			c-2.24-0.51-4.64-0.83-6.91-0.65c-20.76,1.69-35.15,13.46-39.19,34.61c-0.94,4.95,0.17,9.3,3.49,13.3
			c5.2,6.26,6.72,13.23,3.02,20.91c-1.5,3.12-3.02,6.27-4.14,9.54c-2.3,6.68-0.39,12.72,3.62,18.15c5.43,7.35,7.43,15.44,6.22,24.49
			c-0.28,2.08-0.05,4.56,0.86,6.4c5.92,12.06,15.63,19.48,28.62,22.75c7.48,1.88,15.68,2.43,20.28,10.27
			C726.45,258.74,726.45,207.05,726.45,154.7z M362.81,86.41c-12.17-1.25-18.85,4.12-23.72,12.24c-2.87,4.79-6.07,9.11-10.26,12.86
			c-2.7,2.42-5.17,5.46-6.74,8.7c-4.89,10.12-2.97,19.81,2.14,29.51c6.09,11.57,14.86,20.45,25.99,26.71
			c5.11,2.87,11.34,4.61,17.21,5.06c14.91,1.14,25.56-7.04,34.41-18.01c4.11-5.1,7.65-10.7,12.05-15.52
			c5.55-6.07,5.38-13.24-0.58-19.01c-6.91-6.68-13.46-13.77-11.71-24.66c0.39-2.42,0.56-4.96,1.48-7.19
			c2.47-6-0.78-10.27-4.45-13.88c-5.97-5.87-14.17-6.15-22.19-1.72C371.6,84.2,366.85,87.31,362.81,86.41z M257.56,198.35
			c-1.55,0-3.11-0.12-4.64,0.02c-14.09,1.33-22.46,7.01-26.24,22.31c-0.25,1-0.65,1.96-0.92,2.96c-1.59,5.92-5.78,8.71-11.45,10.15
			c-4.48,1.14-9.09,2.28-13.15,4.39c-7.69,4-13.02,12.54-4.14,21.88c1.38,1.45,3.21,2.53,4.94,3.6c8.36,5.15,14.23,14.07,10.34,22.8
			c-2.57,5.76-0.25,14.62,4.63,18.77c6.39,5.44,13.81,5.47,21.56,4.09c4.55-0.81,8.47-2.83,9.78-7.17c1.46-4.82,2.2-10,2.28-15.04
			c0.05-3.49-1.41-7.05-2.44-10.5c-1.08-3.63,0.25-6.41,2.82-8.64c1.93-1.67,4.15-3.05,6.37-4.34c9.1-5.34,17.88-10.76,24.61-19.42
			c4.01-5.16,7.34-10.26,8.59-16.53c1.55-7.76-0.82-14.75-6.33-20.2C276.9,200.25,267.6,197.93,257.56,198.35z M726.24,93.79
			c0-13.83,0-26.61,0-39.15c-2.59,2.87-4.87,6.03-7.78,8.43c-3.44,2.84-7.59,4.8-11.11,7.56c-3.93,3.08-3.97,11.09-0.01,13.37
			C713.31,87.44,719.57,90.37,726.24,93.79z"/>
		<path d="M618.73,612c-0.97-5.8-1.9-11.6-2.93-17.38c-1.01-5.71-5.01-7.2-10.18-7.29c-2.81-0.05-5.61-0.76-8.43-0.93
			c-5.13-0.32-9.4-6.22-9.69-11.1c-0.62-10.38,2.06-19.55,9.65-27.12c2.33-2.33,4.12-5.31,5.76-8.22c5.01-8.95,6.36-18.8,7.19-28.87
			c0.49-5.96,0.64-12.64,3.43-17.59c7.46-13.25,20-18.7,34.96-18.57c10.21,0.08,19.87,2.55,28.93,7.33
			c7.2,3.8,11.59,9.48,12.27,17.75c0.1,1.16,0.15,2.34,0.04,3.49c-1.37,13.57,7.76,19.92,18.72,23.9
			c5.45,1.98,11.04,3.57,16.49,5.53c0.75,0.27,1.56,1.68,1.57,2.56c0.09,18.76,0.07,37.51,0.06,56.27c0,0.64,0.12,1.64-0.22,1.87
			c-8.39,5.7-13.83,15.51-24.68,17.79c-0.75,0.16-1.49,0.4-2.23,0.6C672.54,612,645.63,612,618.73,612z"/>
		<path d="M288.9,612c-4.69-5.55-7.86-11.69-7.61-19.2c0.13-3.88,0.2-7.76,0.34-11.63c0.14-4.25-0.46-8.16-3.6-11.48
			c-2.4-2.53-5.04-3.87-8.53-3.73c-4.39,0.17-8.78,0.27-13.16,0.3c-9.77,0.06-16.83-8.81-13.58-18.18
			c1.71-4.94,4.79-9.94,8.56-13.54c7.87-7.5,8.41-15.62,0.33-22.84c-6.38-5.71-6.33-15.18,0.05-20.79
			c4.15-3.66,8.89-6.91,12.16-11.25c3.16-4.2,4.71-9.59,7.07-14.41c2.59-5.29,4.65-11.02,8.13-15.66c3.68-4.91,9.6-7.18,15.63-8.58
			c8.23-1.92,16.44-3.45,24.84-0.84c12.26,3.81,19,12.64,22.32,24.53c2.95,10.57,0.05,20.28-4.67,29.68
			c-2.29,4.56-5.2,8.97-6.6,13.8c-4.29,14.75,1.95,20.39,11.87,29.68c7,6.55,15.49,11.7,21.67,18.89c5.66,6.59,9.02,15.1,7.72,24.5
			c-1.22,8.86-5.64,13.16-14.62,14.24c-3.83,0.46-7.62,1.38-11.45,1.6c-6.11,0.36-10.11,3.96-13.83,8.18
			c-1.96,2.22-3.85,4.5-5.77,6.76C313.73,612,301.32,612,288.9,612z"/>
		<path d="M64.61,145.23c7.21-0.6,13.14-4.16,17.64-9.34c8.04-9.26,19.06-7.43,25.85-1.61c3.43,2.94,6.5,6.52,8.93,10.33
			c3.23,5.07,5.66,10.64,8.47,15.99c4.2,8,11.32,12.74,18.83,17.13c6.11,3.58,11.77,7.7,16.39,13.29c5.21,6.3,5.37,17.79-0.08,23.96
			c-3.04,3.44-5.11,7.71-9.96,9.36c-5.25,1.79-9.96,0.78-14.32-2.16c-3.3-2.22-6.42-4.74-9.48-7.29c-4.83-4.03-10.51-4.95-16.39-4.1
			c-2.32,0.34-4.92,1.86-6.48,3.64c-3.27,3.73-6.3,7.79-8.79,12.08c-6.01,10.36-18.17,13.77-28.98,5.11
			c-0.49-0.39-1.08-0.64-1.63-0.95C64.61,202.19,64.61,173.71,64.61,145.23z"/>
		<path d="M456.53,612c-5.56-3.65-11.3-7.07-16.62-11.05c-2.71-2.03-4.83-4.94-6.9-7.7c-2.08-2.76-1.36-8.33,0.81-11.35
			c5.02-6.97,12.34-10.14,20.27-11.73c8.58-1.71,17.33-2.52,25.99-3.84c7.06-1.08,13.77-3.14,19.88-7.04
			c5.36-3.42,11.05-5.99,17.57-6.5c8.23-0.65,16.25,3.63,20.07,11.05c2.96,5.75,3.89,11.74,2.07,18.03
			c-1.46,5.06-3.15,10.07-4.31,15.2c-0.38,1.66,0.44,3.67,0.98,5.44c0.97,3.19,2.14,6.33,3.23,9.49
			C511.89,612,484.21,612,456.53,612z"/>
		<path d="M433.25,0c-5.18,7.47-10.54,14.83-15.48,22.46c-5.57,8.62-13.82,12.1-23.45,13.74c-11.13,1.9-21,6.54-29.55,14.16
			c-3.87,3.45-8.34,6.46-12.99,8.75c-6.25,3.09-11.37,0.95-16.23-3.94c-10.8-10.87-8.76-22.99-4.36-35.53
			c1.05-2.99,2.57-5.84,3.42-8.88c1.15-4.08,0.63-7.93-3.04-10.76C365.47,0,399.36,0,433.25,0z"/>
		<path d="M254.75,0c-3.96,2.08-8.08,3.92-11.84,6.31c-4.73,3.01-9.89,5.82-13.59,9.88c-7.57,8.31-16.77,11.36-27.58,11.6
			c-6.54,0.14-13.13,0.7-19.57,1.84c-2.97,0.52-6.12,2.35-8.34,4.48c-9.51,9.11-31.48,6.72-38.77-0.84
			c-4.49-4.66-7.23-9.9-7.01-16.5c0.06-1.67,0.06-3.38-0.19-5.03c-1-6.62-3.66-8.53-10.31-9.02c-4.24-0.32-8.39-1.76-12.58-2.7
			C154.9,0,204.82,0,254.75,0z"/>
		<path d="M726.61,0c-0.01,6.59-0.02,13.18-0.02,19.77c0,6.58-1.54,8.44-7.91,10.64c-11.7,4.04-20.61-0.33-28.05-9.09
			C684.66,14.3,678.9,7.11,673.06,0C690.91,0,708.76,0,726.61,0z"/>
		<path d="M64.61,608.12c7.29-0.66,14.57-1.49,21.87-1.93c5.9-0.36,10.85,2.28,15.38,5.82c-12.42,0-24.83,0-37.25,0
			C64.61,610.68,64.61,609.4,64.61,608.12z"/>
		<path d="M212.07,612c2.55-1.06,5.03-2.78,7.66-3.04c7.71-0.76,15.4-0.44,22.6,3.04C232.24,612,222.16,612,212.07,612z"/>
		<path d="M64.61,46.6c6.46,7.2,6.46,13.6,0,19.42C64.61,59.54,64.61,53.07,64.61,46.6z"/>
		<path d="M337.24,349.72c-8.69,0.37-17.18-1.58-24.03-8.68c-4.54-4.7-5.18-10.8-6.62-16.63c-1.83-7.42-0.75-14.63,1.81-21.7
			c2.66-7.36,8.68-11.67,14.7-15.86c3.48-2.42,7.56-3.99,10.94-6.51c6.66-4.95,8.09-11.13,4.99-19.7
			c-1.46-4.03-4.14-7.67-6.58-11.28c-3.44-5.09-2.17-12.78,3.5-18.45c8.8-8.78,21.79-11.28,33.21-6.03
			c4.78,2.2,9.67,4.36,14.74,5.69c7.49,1.97,14.78-0.88,22.15-1.94c5.28-0.76,10.84-1.48,16.02-0.65
			c8.28,1.32,12.21,8.64,9.41,16.66c-1.99,5.69-4.67,11.17-7.39,16.57c-1.23,2.45-1.29,4.17,0.02,6.7
			c2.59,4.98,6.61,8.32,10.7,11.94c5.79,5.12,12.65,9.7,14.24,18.18c0.4,2.14,0.83,4.4,0.58,6.52c-1.26,10.61,6.16,17.66,15,20.13
			c6.79,1.9,13.9,2.78,20.92,3.74c7.53,1.03,14.6,3.3,21.15,7.06c4.15,2.38,6.58,6.42,7.45,10.93c1.83,9.48,1.99,19.18-4.35,27.1
			c-9.42,11.77-20.93,18.23-38.89,13.7c-6.94-1.75-14.19-2.91-21.32-3.07c-10.83-0.23-20.41,4.58-30.08,9.02
			c-10.64,4.88-21.5,9.39-32.55,13.27c-8.67,3.05-17.58,1.74-25.31-3.18c-6.03-3.84-6.74-10.45-5.62-17.02
			c0.69-4.05,1.93-8.02,3.07-11.98C362.99,360.74,354.14,348,337.24,349.72z"/>
		<path d="M139.46,464.21c-13.28-0.13-22.71-2.56-29.76-10.25c-2.8-3.05-4.23-7.33-6.39-10.98c-3.24-5.46-8.2-9.08-13.56-12.17
			c-3.57-2.06-7.47-3.57-10.91-5.82c-1.96-1.28-3.91-3.29-4.77-5.41c-4.93-12.14-4.04-24.03,3.97-34.46
			c3.58-4.66,8.66-8.41,13.64-11.68c8.61-5.66,12.11-12.97,9.48-20.87c-2.02-6.07-4.05-12.24-5-18.53
			c-1.18-7.78,0.27-15.09,7.17-20.37c4.59-3.51,9.74-3.39,14.82-2.48c7.89,1.42,15.42,1.05,22.62-2.68c3.87-2,7.65-4.2,11.58-6.06
			c4.05-1.91,8.36-1.48,11.91,0.85c9.22,6.04,11.79,11.13,6.41,22c-2.45,4.95-3.1,14.46-0.25,17.87c5,5.98,9.44,10.29,19.43,6.61
			c5.31-1.95,10.41-4.48,15.72-6.43c3.12-1.15,6.41-2.1,9.7-2.43c7.56-0.74,15.15,4.1,18.12,11.17c1.65,3.93,2.98,8,4.82,11.83
			c1.01,2.12,2.54,4.13,4.23,5.78c3.22,3.14,6.76,5.95,10.1,8.98c7.7,6.98,6.63,23.05-1.08,30.09c-5.69,5.2-12.53,7.53-19.24,10.4
			c-7.08,3.03-12.81,7.41-16.3,14.5c-6.18,12.54-15.83,16.89-29.76,12.89c-11.34-3.26-20.19,0.65-27.97,8.44
			C152.11,461.08,144.84,464.06,139.46,464.21z"/>
		<path d="M501.53,144.76c-1.13-4.98-1.95-10.05-3.47-14.9c-1.63-5.2-5.23-7.35-10.63-6.89c-3.46,0.29-6.89,1.05-10.35,1.47
			c-12.1,1.46-20.45-6.11-20.49-18.35c-0.02-8.78,2.06-17.12,6.97-24.22c5.45-7.86,13.18-13.16,22.54-15.93
			c5.2-1.54,11.25-1.44,14.84-6.55c3.04-4.33,5.95-8.52,3.81-14.57c-1.92-5.44-2.76-11.28-3.92-16.98
			c-2.15-10.57,8.43-18.64,15.96-17.3c10.57,1.88,20.39,0.44,30.47-2.09c6.77-1.7,13.66,1.44,16.89,7.68
			c2.29,4.43,3.4,8.61,3.92,13.39c1.17,10.71,5.21,12.16,15.8,13.15c6.46,0.6,13.09-1.09,19.65-1.13c4.79-0.03,9.91,0.1,14.3,1.72
			c5.9,2.17,10.48,6.66,14.78,11.47c2.7,3.02,6.7,5.23,10.53,6.79c7.06,2.88,11.3,7.82,13.35,14.97c0.63,2.19,1.42,4.34,2.21,6.48
			c3.65,9.91-3.67,18.55-11.18,22.26c-3.68,1.81-7.71,2.91-11.47,4.58c-7.11,3.16-13.5,7.21-18.3,13.66
			c-5.78,7.76-12.74,14.54-22.78,15.82c-4.95,0.63-10.2-0.76-15.27-1.49c-11.23-1.6-21.87-0.1-31.71,5.78
			c-8.37,5.01-16.55,10.37-25.09,15.07c-3.14,1.73-7.07,2.64-10.68,2.78c-7.41,0.28-11.39-3.96-11.63-11.4
			c-0.05-1.68-0.01-3.36-0.01-5.04C500.91,144.9,501.22,144.83,501.53,144.76z"/>
		<path d="M429.79,517.65c0-2.07-0.26-4.17,0.04-6.2c1.99-13.29-3.93-17.64-14.96-22.09c-4.05-1.63-8.48-2.67-12.07-5.01
			c-6.49-4.23-9.7-10.86-5.38-18.68c6.54-11.84,17.15-17.93,30.55-17.44c7.36,0.26,14.94,1.85,21.9,4.31
			c13.23,4.68,25.85,4.65,38.77-0.95c9.35-4.05,18.98-7.54,29.49-7.13c6.86,0.27,13.48,1.81,19.04,5.7
			c7.82,5.48,11.24,13.81,12.47,23.06c1.35,10.09-1.81,18.88-9.5,25.27c-4.02,3.34-9.34,5.36-14.37,7.17
			c-6.88,2.48-12.25,5.86-14.84,13.29c-2.66,7.63-8.59,10.74-16.3,8.17c-9.1-3.03-16.11,0.41-22.94,5.47
			c-6.36,4.71-13.12,8.14-21.29,8.07c-11.76-0.1-20.54-8.6-20.83-20.28c-0.02-0.9,0-1.81,0-2.72
			C429.66,517.65,429.73,517.65,429.79,517.65z"/>
		<path d="M589.62,399.83c0.08-0.91,0.03-1.71,0.23-2.45c2.78-10.6-2.08-17.75-10.3-23.64c-9.44-6.77-9.65-15.97-6.08-22.05
			c2.79-4.74,7.61-8.8,12.4-11.75c11.71-7.22,24.55-11.94,38.22-14.09c9.64-1.52,19.03-0.15,27,5.38c5.43,3.77,7.87,10.2,9.24,16.74
			c1.35,6.43,3.85,12.43,10.22,15.05c6.1,2.51,12.56,4.47,19.05,5.6c8.1,1.42,13.85,4.49,17.41,12.61
			c3.42,7.8,3.11,14.41-1.27,21.42c-5.03,8.06-10.11,16.33-20,18.63c-4.67,1.08-10.21,0.73-14.8-0.72c-9.53-3-18.15-0.91-26.62,2.9
			c-9,4.05-18.13,6.76-28.12,5.23c-8.52-1.3-15.41-5.72-21.31-11.65C590.18,412.31,589.62,406.02,589.62,399.83z"/>
		<path d="M214.06,570.72c-0.11,7.04-2.83,12.98-6.96,18.22c-7.35,9.31-23.56,10.27-32.75,2.84c-7.12-5.76-12.35-12.95-17.58-20.21
			c-7.65-10.64-18.17-13.54-30.6-12.04c-5.63,0.68-11.32,1.26-16.97,1.21c-16.93-0.15-27.87-16.67-24.78-31.42
			c2.78-13.27,13.61-23.74,27.02-25.33c9.58-1.13,19.23-1.72,28.86-2.26c6.9-0.38,13-2.2,18.63-6.51
			c6.41-4.91,13.97-6.44,21.96-4.58c12.1,2.82,22.18,8.37,26.79,20.82c2.62,7.08,1.52,14.23,0.29,21.41
			c-1.62,9.47-1.19,18.61,3.77,27.35C213.43,563.21,213.34,567.19,214.06,570.72z"/>
		<path d="M505.05,195.36c3.66,1.13,9.83,3.38,16.18,4.91c6.98,1.68,14.08,2.94,21.18,3.94c6.69,0.94,11.91-2.25,16.29-7.07
			c6.86-7.54,18.92-10.51,28.57-5.17c1,0.55,1.99,1.28,2.7,2.16c4.33,5.44,9.99,8.85,16.48,11.02c6.41,2.14,9.23,7.63,10.49,13.33
			c1.23,5.58-3.35,9.32-7.21,12.68c-1.4,1.22-3.38,1.84-5.19,2.48c-7.99,2.85-11.72,7.59-11.98,16.08
			c-0.2,6.71,0.05,13.44,0.01,20.16c-0.07,12.11-6.86,20.7-16.57,22.81c-11.41,2.48-16.76-0.33-20.7-10.65
			c-2.78-7.3-4.67-7.8-13.1-7.47c-5.51,0.21-11.2,1.28-16.51,0.31c-12.54-2.29-20.92-10.17-24.73-22.29
			c-2.32-7.39-5.64-14.05-10.65-19.87c-1.65-1.92-3.62-3.65-5.71-5.08c-4.99-3.42-7.69-10.45-6.04-16.45
			C481.36,200.94,489.71,195.36,505.05,195.36z"/>
		<path d="M163.6,104.5c0.04-12.71,5.93-21.68,17.54-25.02c6.68-1.93,13.35-3.93,19.9-6.24c8.46-2.98,14.96-8.37,18.98-16.58
			c1-2.05,2.64-3.78,3.64-5.83c5.34-10.95,17.04-10.38,23.98-2.86c2.92,3.16,5.72,6.65,7.64,10.46c3.97,7.87,10.52,12.83,17.6,17.41
			c8,5.18,15.14,10.91,17.81,20.87c2.1,7.82-1.52,17.52-8.8,21.13c-4.02,1.99-8.16,4.2-11.36,7.24c-3.84,3.66-7.44,7.94-9.9,12.61
			c-5.94,11.27-15.98,15.33-27.48,15.61c-10.81,0.27-19.97-4.66-26.44-13.59c-5.23-7.21-12.08-11.57-20.56-14.14
			c-4.98-1.51-9.76-3.99-14.26-6.66C166.02,115.43,163.04,110.03,163.6,104.5z"/>
		<path d="M726.45,154.7c0,52.35,0,104.04,0,155.73c-4.6-7.84-12.8-8.39-20.28-10.27c-12.99-3.27-22.7-10.69-28.62-22.75
			c-0.91-1.85-1.13-4.33-0.86-6.4c1.21-9.05-0.79-17.15-6.22-24.49c-4.02-5.44-5.92-11.47-3.62-18.15c1.12-3.27,2.64-6.42,4.14-9.54
			c3.7-7.68,2.17-14.66-3.02-20.91c-3.32-4-4.43-8.35-3.49-13.3c4.04-21.15,18.43-32.92,39.19-34.61c2.28-0.19,4.67,0.13,6.91,0.65
			C715.86,151.84,721.06,153.3,726.45,154.7z"/>
		<path d="M362.81,86.41c4.03,0.9,8.79-2.21,13.63-4.89c8.02-4.44,16.22-4.16,22.19,1.72c3.67,3.61,6.92,7.88,4.45,13.88
			c-0.92,2.22-1.09,4.77-1.48,7.19c-1.74,10.89,4.81,17.98,11.71,24.66c5.96,5.77,6.13,12.94,0.58,19.01
			c-4.4,4.82-7.94,10.42-12.05,15.52c-8.85,10.97-19.49,19.15-34.41,18.01c-5.86-0.45-12.1-2.2-17.21-5.06
			c-11.13-6.25-19.9-15.14-25.99-26.71c-5.11-9.71-7.03-19.39-2.14-29.51c1.57-3.25,4.04-6.28,6.74-8.7
			c4.19-3.76,7.39-8.08,10.26-12.86C343.96,90.54,350.64,85.16,362.81,86.41z"/>
		<path d="M257.56,198.35c10.04-0.42,19.34,1.9,26.62,9.12c5.51,5.46,7.88,12.44,6.33,20.2c-1.25,6.26-4.58,11.37-8.59,16.53
			c-6.73,8.66-15.52,14.08-24.61,19.42c-2.21,1.3-4.44,2.67-6.37,4.34c-2.57,2.23-3.9,5.02-2.82,8.64c1.03,3.46,2.49,7.01,2.44,10.5
			c-0.08,5.04-0.82,10.22-2.28,15.04c-1.32,4.35-5.24,6.36-9.78,7.17c-7.76,1.38-15.17,1.35-21.56-4.09
			c-4.88-4.15-7.19-13.01-4.63-18.77c3.89-8.74-1.99-17.66-10.34-22.8c-1.73-1.07-3.56-2.14-4.94-3.6
			c-8.88-9.34-3.55-17.89,4.14-21.88c4.05-2.11,8.67-3.25,13.15-4.39c5.67-1.44,9.87-4.24,11.45-10.15c0.27-1,0.67-1.96,0.92-2.96
			c3.78-15.3,12.15-20.98,26.24-22.31C254.46,198.22,256.02,198.35,257.56,198.35z"/>
		<path d="M726.24,93.79c-6.67-3.42-12.93-6.35-18.89-9.79c-3.95-2.28-3.92-10.29,0.01-13.37c3.52-2.76,7.67-4.71,11.11-7.56
			c2.9-2.4,5.18-5.56,7.78-8.43C726.24,67.18,726.24,79.96,726.24,93.79z"/>
	</g>
</g>
</svg>
