<?xml version="1.0" encoding="utf-8"?>
<!-- Generator: Adobe Illustrator 23.1.1, SVG Export Plug-In . SVG Version: 6.00 Build 0)  -->
<svg version="1.1" id="Layer_1" xmlns="http://www.w3.org/2000/svg" xmlns:xlink="http://www.w3.org/1999/xlink" x="0px" y="0px"
	 viewBox="0 0 792 612" style="enable-background:new 0 0 792 612;" xml:space="preserve">
<style type="text/css">
	.st0{fill:#FFFFFF;}
	.st1{font-family:'AvenirNextCondensed-UltraLight';}
	.st2{font-size:37px;}
	.st3{letter-spacing:5.06;}
	.st4{font-family:'ShreeDev0714';}
</style>
<g>
	<path d="M410.71,155.55c14.76,1.78,27.05-4.49,39.22-11.75c21.84-13.02,41.52-11.82,58.74,3.42
		c14.44,12.77,14.99,28.84,10.31,46.01c-4.87,17.87-4.12,35.54,5.53,51.47c4.9,8.1,12.63,14.51,19.2,21.57
		c19.12,20.53,20.67,34.1,4.25,56.36c-14.38,19.49-28.99,39-45.32,56.84c-40.83,44.57-94.71,41.74-135.48,8.8
		c-26.68-21.55-49.81-46.15-59.38-80.83c-9.19-33.33-4.08-62.07,21.73-86.79c9.83-9.41,17.8-21.1,25.13-32.69
		C367.83,167.11,384,152.58,410.71,155.55z"/>
</g>
<text transform="matrix(-4.951154e-04 -0.9888 1 -5.007249e-04 399.7456 388.798)"><tspan x="0" y="0" class="st0 st1 st2 st3">Alexis Harris</tspan><tspan x="217.56" y="0" class="st0 st4 st2"> </tspan></text>
</svg>
